<?xml version="1.0" standalone="no"?>
<!DOCTYPE svg PUBLIC "-//W3C//DTD SVG 20010904//EN"
 "http://www.w3.org/TR/2001/REC-SVG-20010904/DTD/svg10.dtd">
<svg version="1.0" xmlns="http://www.w3.org/2000/svg"
 width="512.000000pt" height="512.000000pt" viewBox="0 0 512.000000 512.000000"
 preserveAspectRatio="xMidYMid meet">
<metadata>
Created by potrace 1.11, written by Peter Selinger 2001-2013
</metadata>
<g transform="translate(0.000000,512.000000) scale(0.100000,-0.100000)"
fill="#000000" stroke="none">
<path d="M2165 4699 c-34 -5 -94 -18 -135 -28 -41 -11 -78 -18 -82 -15 -4 3
-8 1 -8 -5 0 -5 -10 -13 -22 -17 -48 -14 -186 -88 -248 -132 -86 -60 -214
-191 -272 -277 -141 -210 -194 -393 -197 -680 -2 -176 -5 -195 -31 -250 -51
-106 -50 -104 -47 -509 2 -377 3 -381 26 -425 41 -79 39 -80 130 57 l84 125 2
586 c2 322 5 597 9 611 53 223 202 380 436 460 36 12 79 28 95 35 17 6 45 18
63 25 l32 12 0 115 c0 108 1 115 25 138 29 30 74 33 106 6 23 -18 24 -27 30
-192 7 -162 11 -216 25 -311 l6 -38 369 0 c288 0 369 3 370 13 0 6 2 28 5 47
2 19 7 53 9 75 3 22 8 105 11 185 3 80 7 159 10 177 9 62 84 84 129 38 24 -23
25 -30 25 -138 0 -100 2 -116 18 -122 9 -4 69 -26 132 -50 183 -68 215 -86
308 -170 85 -76 178 -272 170 -357 -2 -21 -1 -38 2 -38 3 0 6 -249 6 -553 l-1
-552 64 -100 c35 -55 71 -112 80 -127 9 -16 21 -26 26 -25 6 2 24 30 40 62
l30 59 3 359 c3 383 0 417 -44 513 -22 48 -27 77 -30 154 -9 243 -15 326 -28
383 -52 218 -148 397 -295 547 -156 158 -327 255 -547 311 -83 21 -112 23
-459 25 -203 1 -397 -2 -430 -7z"/>
<path d="M1879 4056 c-167 -65 -238 -117 -295 -213 -59 -101 -57 -82 -59 -661
-1 -377 1 -535 9 -541 27 -21 369 -171 446 -196 217 -69 380 -94 605 -91 307
5 513 56 845 212 74 35 142 68 150 72 13 8 15 48 17 248 3 290 3 236 0 439 -1
94 1 180 5 191 3 12 4 25 1 28 -3 3 -7 42 -9 88 -7 150 -79 278 -201 356 -41
26 -258 112 -283 112 -4 0 -11 -30 -14 -67 -4 -38 -9 -93 -12 -123 -3 -30 -7
-66 -9 -80 -2 -14 -6 -56 -10 -95 -3 -38 -8 -86 -10 -105 -3 -19 -7 -62 -10
-95 -3 -33 -8 -76 -10 -95 -3 -19 -7 -62 -10 -95 -3 -33 -7 -76 -10 -95 -2
-19 -7 -59 -10 -89 -10 -85 -13 -95 -37 -113 -21 -16 -58 -18 -406 -18 -252 0
-390 4 -403 11 -34 18 -40 47 -65 309 -16 176 -25 254 -29 280 -3 14 -7 60
-10 102 -4 43 -8 86 -9 95 -2 10 -7 52 -11 93 -4 41 -9 84 -10 95 -1 11 -3 35
-4 53 -1 41 -8 41 -142 -12z"/>
<path d="M2214 3753 c3 -43 8 -91 10 -108 3 -16 7 -59 10 -95 3 -36 8 -74 10
-85 2 -11 7 -56 11 -101 3 -44 8 -89 10 -100 2 -10 4 -31 4 -46 l1 -28 290 0
290 0 1 28 c0 15 2 35 4 45 2 9 6 50 10 90 3 39 8 88 11 107 4 37 9 85 19 190
4 36 10 91 14 123 l8 57 -355 0 -355 0 7 -77z"/>
<path d="M1495 2449 c-4 -12 -3 -24 1 -28 5 -3 14 -15 21 -26 148 -250 199
-325 220 -325 7 0 49 -11 91 -24 81 -25 260 -77 277 -81 6 -1 29 -7 53 -14 27
-7 48 -9 55 -3 7 5 48 38 92 73 l79 64 189 3 190 3 61 -47 c33 -26 77 -61 97
-76 l37 -29 163 46 c89 26 170 49 178 51 9 2 45 12 80 22 64 18 65 19 99 83
135 256 152 292 147 310 -8 24 -21 21 -125 -28 -248 -118 -381 -162 -605 -204
-182 -33 -491 -33 -680 2 -67 12 -212 46 -235 56 -8 3 -23 8 -33 10 -10 2 -41
12 -68 23 -27 11 -71 29 -97 39 -26 11 -96 42 -156 70 -59 28 -111 51 -116 51
-5 0 -12 -10 -15 -21z"/>
<path d="M1375 2281 c-3 -11 -12 -27 -18 -34 -14 -16 -33 -44 -48 -74 -10 -19
-7 -28 19 -60 21 -27 32 -54 36 -89 5 -46 10 -54 78 -116 40 -37 72 -72 71
-78 -2 -5 3 -7 10 -5 6 3 33 -14 58 -38 26 -23 73 -64 105 -92 86 -75 149
-141 218 -230 82 -107 177 -265 159 -265 -5 0 -3 -4 4 -8 6 -4 37 -58 67 -120
31 -61 60 -112 65 -112 5 0 30 15 55 34 l45 35 265 1 266 1 54 -40 53 -40 69
137 c38 75 71 139 74 142 3 3 18 30 34 60 78 150 213 302 489 549 81 73 147
136 148 139 5 66 16 102 40 133 l28 35 -43 68 -42 67 -83 -158 c-46 -87 -89
-164 -96 -172 -10 -11 -88 -37 -165 -56 -8 -2 -110 -31 -226 -64 -116 -34
-220 -61 -231 -61 -11 0 -65 36 -121 80 l-100 80 -133 0 -134 -1 -100 -79
c-58 -46 -109 -80 -122 -80 -13 0 -51 9 -85 20 -35 11 -160 47 -278 80 -118
33 -225 64 -236 69 -12 5 -62 76 -112 158 -133 216 -129 210 -137 184z"/>
<path d="M1395 1703 c2 -21 7 -74 10 -118 4 -44 8 -87 10 -95 2 -8 7 -51 10
-95 9 -111 11 -119 38 -178 19 -40 150 -221 255 -352 4 -5 72 -95 152 -200 79
-104 154 -202 166 -217 l23 -28 91 105 91 105 318 0 318 0 29 -34 c16 -18 56
-68 89 -110 l59 -76 19 22 c141 179 571 753 586 785 12 23 25 82 31 135 10 90
12 109 25 248 4 36 8 80 11 99 5 41 13 46 -136 -88 -130 -118 -166 -155 -241
-255 -77 -101 -115 -168 -233 -402 -120 -240 -123 -242 -254 -144 l-79 60
-215 0 -215 0 -74 -55 c-41 -31 -85 -58 -98 -62 -50 -13 -70 13 -181 233 -171
341 -252 450 -465 629 -32 28 -78 67 -101 88 l-43 38 4 -38z"/>
</g>
</svg>
